<mxfile modified="2024-03-20T02:28:50.062Z" host="Electron" agent="Mozilla/5.0 (Windows NT 10.0; Win64; x64) AppleWebKit/537.36 (KHTML, like Gecko) draw.io/22.1.16 Chrome/120.0.6099.109 Electron/28.1.0 Safari/537.36" etag="6I53tG5uEr-qhcvqDq9y" version="22.1.16" type="device">
  <diagram id="Ht1M8jgEwFfnCIfOTk4-" name="Page-1">
    <mxGraphModel dx="802" dy="482" grid="1" gridSize="10" guides="1" tooltips="1" connect="1" arrows="1" fold="1" page="1" pageScale="1" pageWidth="1169" pageHeight="827" math="0" shadow="0">
      <root>
        <mxCell id="0" />
        <mxCell id="1" parent="0" />
        <mxCell id="GjYsiIs8rteB1ZBRwerZ-4" value="" style="rounded=1;arcSize=10;dashed=0;fillColor=none;gradientColor=none;strokeWidth=2;" vertex="1" parent="1">
          <mxGeometry x="670" y="220" width="240" height="170" as="geometry" />
        </mxCell>
        <mxCell id="GjYsiIs8rteB1ZBRwerZ-5" value="" style="dashed=0;html=1;shape=mxgraph.aws3.cloud;fillColor=#F58536;gradientColor=none;dashed=0;" vertex="1" parent="1">
          <mxGeometry x="690" y="200" width="52" height="36" as="geometry" />
        </mxCell>
        <mxCell id="GjYsiIs8rteB1ZBRwerZ-6" value="" style="outlineConnect=0;dashed=0;verticalLabelPosition=bottom;verticalAlign=top;align=center;html=1;shape=mxgraph.aws3.iam;fillColor=#759C3E;gradientColor=none;" vertex="1" parent="1">
          <mxGeometry x="704.18" y="284.43" width="30.37" height="58.57" as="geometry" />
        </mxCell>
        <mxCell id="GjYsiIs8rteB1ZBRwerZ-7" value="" style="sketch=0;points=[[0,0,0],[0.25,0,0],[0.5,0,0],[0.75,0,0],[1,0,0],[0,1,0],[0.25,1,0],[0.5,1,0],[0.75,1,0],[1,1,0],[0,0.25,0],[0,0.5,0],[0,0.75,0],[1,0.25,0],[1,0.5,0],[1,0.75,0]];outlineConnect=0;fontColor=#232F3E;fillColor=#7AA116;strokeColor=#ffffff;dashed=0;verticalLabelPosition=bottom;verticalAlign=top;align=center;html=1;fontSize=12;fontStyle=0;aspect=fixed;shape=mxgraph.aws4.resourceIcon;resIcon=mxgraph.aws4.s3;" vertex="1" parent="1">
          <mxGeometry x="819.18" y="286.63" width="56.37" height="56.37" as="geometry" />
        </mxCell>
        <mxCell id="GjYsiIs8rteB1ZBRwerZ-9" value="" style="rounded=1;arcSize=10;dashed=0;fillColor=none;gradientColor=none;strokeWidth=2;" vertex="1" parent="1">
          <mxGeometry x="190" y="220" width="420" height="170" as="geometry" />
        </mxCell>
        <mxCell id="GjYsiIs8rteB1ZBRwerZ-11" value="" style="shape=image;verticalLabelPosition=bottom;labelBackgroundColor=default;verticalAlign=top;aspect=fixed;imageAspect=0;image=https://logos-world.net/wp-content/uploads/2020/11/GitHub-Symbol-700x394.png;" vertex="1" parent="1">
          <mxGeometry x="190" y="186.23" width="60" height="33.77" as="geometry" />
        </mxCell>
        <mxCell id="GjYsiIs8rteB1ZBRwerZ-17" value="" style="rounded=0;whiteSpace=wrap;html=1;fillColor=none;" vertex="1" parent="1">
          <mxGeometry x="370" y="250" width="100" height="105" as="geometry" />
        </mxCell>
        <mxCell id="GjYsiIs8rteB1ZBRwerZ-18" value="GitHub Actions" style="text;html=1;strokeColor=none;fillColor=none;align=center;verticalAlign=middle;whiteSpace=wrap;rounded=0;" vertex="1" parent="1">
          <mxGeometry x="375" y="250" width="90" height="20" as="geometry" />
        </mxCell>
        <mxCell id="GjYsiIs8rteB1ZBRwerZ-19" value="CI" style="text;html=1;strokeColor=none;fillColor=none;align=center;verticalAlign=middle;whiteSpace=wrap;rounded=0;fontSize=10;" vertex="1" parent="1">
          <mxGeometry x="407.5" y="275.31" width="25" height="20.25" as="geometry" />
        </mxCell>
        <mxCell id="GjYsiIs8rteB1ZBRwerZ-20" value="CD" style="text;html=1;strokeColor=none;fillColor=none;align=center;verticalAlign=middle;whiteSpace=wrap;rounded=0;fontSize=10;" vertex="1" parent="1">
          <mxGeometry x="407.5" y="324.68" width="25" height="20" as="geometry" />
        </mxCell>
        <mxCell id="GjYsiIs8rteB1ZBRwerZ-21" value="" style="edgeStyle=orthogonalEdgeStyle;html=1;endArrow=block;elbow=vertical;startArrow=none;endFill=1;strokeColor=#545B64;rounded=0;exitX=0.5;exitY=1;exitDx=0;exitDy=0;entryX=0.5;entryY=0;entryDx=0;entryDy=0;" edge="1" parent="1" source="GjYsiIs8rteB1ZBRwerZ-19" target="GjYsiIs8rteB1ZBRwerZ-20">
          <mxGeometry width="100" relative="1" as="geometry">
            <mxPoint x="520" y="353.06" as="sourcePoint" />
            <mxPoint x="410" y="323.06" as="targetPoint" />
          </mxGeometry>
        </mxCell>
        <mxCell id="GjYsiIs8rteB1ZBRwerZ-8" value="" style="outlineConnect=0;dashed=0;verticalLabelPosition=bottom;verticalAlign=top;align=center;html=1;shape=mxgraph.aws3.users;fillColor=#D2D3D3;gradientColor=none;" vertex="1" parent="1">
          <mxGeometry x="204" y="250" width="66" height="63" as="geometry" />
        </mxCell>
        <mxCell id="GjYsiIs8rteB1ZBRwerZ-24" value="GitHub User" style="text;html=1;strokeColor=none;fillColor=none;align=center;verticalAlign=middle;whiteSpace=wrap;rounded=0;fontSize=9;" vertex="1" parent="1">
          <mxGeometry x="200" y="320" width="70" height="16" as="geometry" />
        </mxCell>
        <mxCell id="GjYsiIs8rteB1ZBRwerZ-25" value="" style="edgeStyle=orthogonalEdgeStyle;html=1;endArrow=block;elbow=vertical;startArrow=none;endFill=1;strokeColor=#545B64;rounded=0;entryX=0;entryY=0.75;entryDx=0;entryDy=0;exitX=1;exitY=0.5;exitDx=0;exitDy=0;" edge="1" parent="1" source="GjYsiIs8rteB1ZBRwerZ-24" target="GjYsiIs8rteB1ZBRwerZ-17">
          <mxGeometry width="100" relative="1" as="geometry">
            <mxPoint x="350" y="360" as="sourcePoint" />
            <mxPoint x="450" y="360" as="targetPoint" />
          </mxGeometry>
        </mxCell>
        <mxCell id="GjYsiIs8rteB1ZBRwerZ-26" value="Pull Request" style="edgeLabel;html=1;align=center;verticalAlign=middle;resizable=0;points=[];fontSize=9;" vertex="1" connectable="0" parent="GjYsiIs8rteB1ZBRwerZ-25">
          <mxGeometry x="0.2755" y="-1" relative="1" as="geometry">
            <mxPoint x="-17" y="-2" as="offset" />
          </mxGeometry>
        </mxCell>
        <mxCell id="GjYsiIs8rteB1ZBRwerZ-27" value="" style="shape=image;verticalLabelPosition=bottom;labelBackgroundColor=default;verticalAlign=top;aspect=fixed;imageAspect=0;image=https://s3.amazonaws.com/media-p.slid.es/uploads/320931/images/5447739/keys-png-black-and-white-black-key-icon-512.png;" vertex="1" parent="1">
          <mxGeometry x="530" y="240" width="63.5" height="63.5" as="geometry" />
        </mxCell>
        <mxCell id="GjYsiIs8rteB1ZBRwerZ-28" value="OpenID&lt;br&gt;Connect&lt;br&gt;(OIDC)" style="text;html=1;strokeColor=none;fillColor=none;align=center;verticalAlign=middle;whiteSpace=wrap;rounded=0;fontSize=10;" vertex="1" parent="1">
          <mxGeometry x="538.5" y="306.37" width="46.5" height="38.25" as="geometry" />
        </mxCell>
        <mxCell id="GjYsiIs8rteB1ZBRwerZ-29" value="IAM" style="text;html=1;strokeColor=none;fillColor=none;align=center;verticalAlign=middle;whiteSpace=wrap;rounded=0;fontSize=9;" vertex="1" parent="1">
          <mxGeometry x="693.62" y="352" width="51.5" height="16" as="geometry" />
        </mxCell>
        <mxCell id="GjYsiIs8rteB1ZBRwerZ-30" value="S3" style="text;html=1;strokeColor=none;fillColor=none;align=center;verticalAlign=middle;whiteSpace=wrap;rounded=0;fontSize=9;" vertex="1" parent="1">
          <mxGeometry x="821.62" y="352" width="51.5" height="16" as="geometry" />
        </mxCell>
        <mxCell id="GjYsiIs8rteB1ZBRwerZ-35" value="" style="edgeStyle=orthogonalEdgeStyle;html=1;endArrow=none;elbow=vertical;startArrow=none;endFill=0;strokeColor=#545B64;rounded=0;exitX=1;exitY=0.75;exitDx=0;exitDy=0;dashed=1;" edge="1" parent="1" source="GjYsiIs8rteB1ZBRwerZ-27" target="GjYsiIs8rteB1ZBRwerZ-6">
          <mxGeometry width="100" relative="1" as="geometry">
            <mxPoint x="590" y="410" as="sourcePoint" />
            <mxPoint x="690" y="410" as="targetPoint" />
          </mxGeometry>
        </mxCell>
        <mxCell id="GjYsiIs8rteB1ZBRwerZ-36" value="" style="edgeStyle=orthogonalEdgeStyle;html=1;endArrow=block;elbow=vertical;startArrow=none;endFill=1;strokeColor=#545B64;rounded=0;exitX=0.5;exitY=1;exitDx=0;exitDy=0;entryX=0.5;entryY=1;entryDx=0;entryDy=0;" edge="1" parent="1" source="GjYsiIs8rteB1ZBRwerZ-17" target="GjYsiIs8rteB1ZBRwerZ-30">
          <mxGeometry width="100" relative="1" as="geometry">
            <mxPoint x="580" y="340" as="sourcePoint" />
            <mxPoint x="680" y="340" as="targetPoint" />
            <Array as="points">
              <mxPoint x="420" y="410" />
              <mxPoint x="847" y="410" />
            </Array>
          </mxGeometry>
        </mxCell>
      </root>
    </mxGraphModel>
  </diagram>
</mxfile>
